<?xml version="1.0" encoding="UTF-8"?>
<svg id="Layer_1" data-name="Layer 1" xmlns="http://www.w3.org/2000/svg" viewBox="0 0 1200 1200">
  <defs>
    <style>
      .cls-1 {
        fill: #fff;
      }
    </style>
  </defs>
  <polygon class="cls-1" points="950.02 348.89 917.68 348.89 1023.35 81.95 1055.63 81.9 950.02 348.89"/>
  <polygon class="cls-1" points="1184.18 111.72 1043.81 111.92 1023.4 81.94 1196.51 81.7 1184.18 111.72"/>
  <polygon class="cls-1" points="765.36 1131.65 765.32 1052.65 1164.08 81.7 1196.51 81.7 765.36 1131.65"/>
  <rect class="cls-1" x="519.35" y="442.76" width="374.91" height="30"/>
  <rect class="cls-1" x="501.09" y="318.89" width="440.87" height="30"/>
  <path class="cls-1" d="m804.39,989.85L431.43,81.72h0s0,0,0,0h0s0,0,0,0h0s-9.88,24.06-9.88,24.06h0S.17,1131.8.17,1131.8l109.63-.15,105.63-267.02h440.27l109.67,267.03,39.04-141.8Zm-551.84-219.1l169.35-428.12,9.52-24.02,10.11,24.56h0s175.6,427.58,175.6,427.58H252.56Z"/>
  <polygon class="cls-1" points="735.89 890.2 716.6 856.82 880.51 442.76 912.88 442.76 735.89 890.2"/>
</svg>